# xmcd
#
# Track frame offsets:
#       150
#       12445
#       23835
#       34863
#       48208
#       60596
#       76211
#       89085
#       104751
#       123160
#       140196
#       171141
#       190757
#       209452
#
# Disc length: 3034 seconds
#
# Revision: 1
# Processed by: cddbd v1.5.2PL0 Copyright (c) Steve Scherf et al.
# Submitted via: FreeDbEdit v0.1
#
DISCID=c20bd80e
DTITLE=The Temptations - Favourites
DYEAR=1900
DGENRE=Motown
TTITLE0=My Girl
TTITLE1=Ain't Too Proud to Beg
TTITLE2=(I Know) I'm Losing You
TTITLE3=You're My Everything
TTITLE4=I Wish It Would Rain
TTITLE5=Cloud Nine
TTITLE6=I Can't Get Next to You
TTITLE7=Psychedelic Shack
TTITLE8=Ball of Confusion
TTITLE9=Just My Imagination
TTITLE10=Papa Was a Rollin' Stone
TTITLE11=Masterpiece
TTITLE12=Power
TTITLE13=Treat Her Like a Lady
EXTD=
EXTT0=
EXTT1=
EXTT2=
EXTT3=
EXTT4=
EXTT5=
EXTT6=
EXTT7=
EXTT8=
EXTT9=
EXTT10=
EXTT11=
EXTT12=
EXTT13=
PLAYORDER=
